<svg version="1" xmlns="http://www.w3.org/2000/svg" width="346.667" height="346.667" viewBox="0 0 260.000000 260.000000"><path d="M32 26.2c-.6 2.4-2.7 10.3-4.7 17.7-1.9 7.3-3.5 14.3-3.5 15.5 0 1.1 1.4 9.3 3.1 18.1 1.7 8.8 3.2 17.1 3.5 18.5.2 1.4 1 5.3 1.7 8.7 1.2 5.9 1.1 6.7-1.8 17l-3 10.8-3.4.1c-1.8.1-4.9-.2-6.8-.7-5.5-1.1-15.1-2.1-15.1-1.4 0 .3 3.6 4.5 8 9.4s8 9.1 8 9.3c0 .2-3.9.5-8.7.7-4.8.1-8.9.4-9.2.6-.2.3 3.2 4.8 7.5 10.2 8.2 10.1 10.3 13 8.7 12-1.9-1.2-13.4-3.4-13.8-2.7-.3.4 5 5.5 11.8 11.3C21 187 27.6 192.8 29 194c1.4 1.2 4.7 4.1 7.4 6.4 2.6 2.2 6 5.1 7.5 6.4 1.4 1.3 6.6 5.7 11.4 9.9l8.8 7.6 19.2 6.2 19.2 6.2h55l19.5-6.3 19.5-6.4 10.5-9.1c5.8-5 11.9-10.3 13.5-11.8 1.7-1.4 10.8-9.3 20.3-17.5 9.4-8.2 17.2-15.2 17.2-15.6 0-.4-3.4 0-7.5 1-7.5 1.8-7.8 1.6-4.4-2.5 5-5.7 13.8-17.1 13.9-17.8 0-.4-3.4-.8-7.5-.8-11.1-.2-11.2-.2-7.3-4.5 1.3-1.4 3.2-3.5 4.3-4.7 5.5-6 8.6-10 8.2-10.4-.3-.2-5.7.3-12.1 1.3-6.5.9-11.9 1.4-12.2 1.1-.6-.6-6.6-19.8-6.6-21.2 0-1.1.7-5.2 2.2-13 .6-2.8 1.2-6.1 1.5-7.5 6-31.3 6.1-31.7 5.1-36-1.4-6.1-8.7-32.4-9.1-32.8-.6-.6-18.9 7.3-22.5 9.6-2.8 1.8-3.8 2.1-9.6 2.7-14.7 1.4-14.7 1.3-29.4 9.6l-14.5 8-8.5-.7c-9.6-.7-16.7-.7-25.8.2-6 .5-6.5.4-14.5-3.9-13.2-7.2-18.1-9.9-19.2-10.8-1-.8-6.2-1.5-16.9-2.4-3.2-.2-6.9-1.1-8.2-2C54.8 30.8 35.1 22 33.9 22c-.4 0-1.3 1.9-1.9 4.2z"/></svg>